HIERARCHY
ROOT Hips
{
	OFFSET -0.066283 88.859909 3.106752
	CHANNELS 6 Xposition Yposition Zposition Zrotation Yrotation Xrotation 
	JOINT Spine
	{
		OFFSET -0.000000 8.814246 -2.080107
		CHANNELS 3 Zrotation Yrotation Xrotation
		JOINT Spine1
		{
			OFFSET -0.000000 8.844141 0.000000
			CHANNELS 3 Zrotation Yrotation Xrotation
			JOINT Spine2
			{
				OFFSET 0.000000 11.682268 0.000000
				CHANNELS 3 Zrotation Yrotation Xrotation
				JOINT Spine3
				{
					OFFSET -0.000000 11.746700 0.000000
					CHANNELS 3 Zrotation Yrotation Xrotation
					JOINT Neck
					{
						OFFSET -0.000000 17.658264 0.000000
						CHANNELS 3 Zrotation Yrotation Xrotation
						JOINT Neck1
						{
							OFFSET 0.000000 5.101515 -0.000000
							CHANNELS 3 Zrotation Yrotation Xrotation
							JOINT Head
							{
								OFFSET -0.000000 5.101515 -0.000000
								CHANNELS 3 Zrotation Yrotation Xrotation
								JOINT HeadEnd
								{
									OFFSET 0.000000 11.655085 -0.000000
									CHANNELS 3 Zrotation Yrotation Xrotation
									End Site
									{
										OFFSET 0.000000 0.000000 0.000000
									}
								}
							}
						}
					}
					JOINT RightShoulder
					{
						OFFSET -2.625389 11.175210 -0.000000
						CHANNELS 3 Zrotation Yrotation Xrotation
						JOINT RightArm
						{
							OFFSET 0.000000 10.434715 -0.000000
							CHANNELS 3 Zrotation Yrotation Xrotation
							JOINT RightForeArm
							{
								OFFSET -0.000000 29.628420 0.000000
								CHANNELS 3 Zrotation Yrotation Xrotation
								JOINT RightHand
								{
									OFFSET -0.000000 22.857611 0.000000
									CHANNELS 3 Zrotation Yrotation Xrotation
									JOINT RightHandThumb1
									{
										OFFSET -2.867323 3.959563 2.944291
										CHANNELS 3 Zrotation Yrotation Xrotation
										JOINT RightHandThumb2
										{
											OFFSET -0.000000 3.350399 0.000000
											CHANNELS 3 Zrotation Yrotation Xrotation
											JOINT RightHandThumb3
											{
												OFFSET -0.000000 3.756509 -0.000000
												CHANNELS 3 Zrotation Yrotation Xrotation
												JOINT RightHandThumb4
												{
													OFFSET -0.000000 3.147345 0.000000
													CHANNELS 3 Zrotation Yrotation Xrotation
													End Site
													{
														OFFSET 0.000000 0.000000 0.000000
													}
												}
											}
										}
									}
									JOINT RightHandIndex1
									{
										OFFSET -0.086752 10.030893 2.345280
										CHANNELS 3 Zrotation Yrotation Xrotation
										JOINT RightHandIndex2
										{
											OFFSET 0.000000 4.061090 -0.000000
											CHANNELS 3 Zrotation Yrotation Xrotation
											JOINT RightHandIndex3
											{
												OFFSET 0.000000 3.248873 -0.000000
												CHANNELS 3 Zrotation Yrotation Xrotation
												JOINT RightHandIndex4
												{
													OFFSET 0.000000 2.639709 0.000000
													CHANNELS 3 Zrotation Yrotation Xrotation
													End Site
													{
														OFFSET 0.000000 0.000000 0.000000
													}
												}
											}
										}
									}
									JOINT RightHandMiddle1
									{
										OFFSET 0.104102 9.502952 0.006768
										CHANNELS 3 Zrotation Yrotation Xrotation
										JOINT RightHandMiddle2
										{
											OFFSET 0.000000 4.568727 0.000000
											CHANNELS 3 Zrotation Yrotation Xrotation
											JOINT RightHandMiddle3
											{
												OFFSET 0.000000 3.654981 -0.000000
												CHANNELS 3 Zrotation Yrotation Xrotation
												JOINT RightHandMiddle4
												{
													OFFSET -0.000000 2.741236 0.000000
													CHANNELS 3 Zrotation Yrotation Xrotation
													End Site
													{
														OFFSET 0.000000 0.000000 0.000000
													}
												}
											}
										}
									}
									JOINT RightHandRing1
									{
										OFFSET 0.086752 8.921708 -2.267442
										CHANNELS 3 Zrotation Yrotation Xrotation
										JOINT RightHandRing2
										{
											OFFSET 0.000000 4.061090 -0.000000
											CHANNELS 3 Zrotation Yrotation Xrotation
											JOINT RightHandRing3
											{
												OFFSET -0.000000 3.654981 0.000000
												CHANNELS 3 Zrotation Yrotation Xrotation
												JOINT RightHandRing4
												{
													OFFSET -0.000000 2.741236 0.000000
													CHANNELS 3 Zrotation Yrotation Xrotation
													End Site
													{
														OFFSET 0.000000 0.000000 0.000000
													}
												}
											}
										}
									}
									JOINT RightHandPinky1
									{
										OFFSET -0.173504 7.976997 -4.467199
										CHANNELS 3 Zrotation Yrotation Xrotation
										JOINT RightHandPinky2
										{
											OFFSET -0.000000 3.350399 0.000000
											CHANNELS 3 Zrotation Yrotation Xrotation
											JOINT RightHandPinky3
											{
												OFFSET 0.000000 2.842763 0.000000
												CHANNELS 3 Zrotation Yrotation Xrotation
												JOINT RightHandPinky4
												{
													OFFSET 0.000000 2.639709 0.000000
													CHANNELS 3 Zrotation Yrotation Xrotation
													End Site
													{
														OFFSET 0.000000 0.000000 0.000000
													}
												}
											}
										}
									}
									JOINT RightForeArmEnd
									{
										OFFSET 0.000000 0.000000 0.000000
										CHANNELS 3 Zrotation Yrotation Xrotation
										End Site
										{
											OFFSET 0.000000 0.000000 0.000000
										}
									}
								}
								JOINT RightArmEnd
								{
									OFFSET 0.000000 0.000000 0.000000
									CHANNELS 3 Zrotation Yrotation Xrotation
									End Site
									{
										OFFSET 0.000000 0.000000 0.000000
									}
								}
							}
						}
					}
					JOINT LeftShoulder
					{
						OFFSET 2.625389 11.175210 0.000000
						CHANNELS 3 Zrotation Yrotation Xrotation
						JOINT LeftArm
						{
							OFFSET -0.000000 10.813635 -0.000000
							CHANNELS 3 Zrotation Yrotation Xrotation
							JOINT LeftForeArm
							{
								OFFSET -0.000000 28.724781 -0.000000
								CHANNELS 3 Zrotation Yrotation Xrotation
								JOINT LeftHand
								{
									OFFSET 0.644384 25.716167 -0.328871
									CHANNELS 3 Zrotation Yrotation Xrotation
									JOINT LeftHandThumb1
									{
										OFFSET 2.867323 3.959563 2.944291
										CHANNELS 3 Zrotation Yrotation Xrotation
										JOINT LeftHandThumb2
										{
											OFFSET 0.000000 3.350399 0.000000
											CHANNELS 3 Zrotation Yrotation Xrotation
											JOINT LeftHandThumb3
											{
												OFFSET -0.000000 3.756509 -0.000000
												CHANNELS 3 Zrotation Yrotation Xrotation
												JOINT LeftHandThumb4
												{
													OFFSET 0.000000 3.100000 0.000000
													CHANNELS 3 Zrotation Yrotation Xrotation
													End Site
													{
														OFFSET 0.000000 0.000000 0.000000
													}
												}
											}
										}
									}
									JOINT LeftHandIndex1
									{
										OFFSET 0.086752 10.030893 2.345280
										CHANNELS 3 Zrotation Yrotation Xrotation
										JOINT LeftHandIndex2
										{
											OFFSET 0.000000 4.061090 0.000000
											CHANNELS 3 Zrotation Yrotation Xrotation
											JOINT LeftHandIndex3
											{
												OFFSET -0.000000 3.248873 -0.000000
												CHANNELS 3 Zrotation Yrotation Xrotation
												JOINT LeftHandIndex4
												{
													OFFSET 0.000000 2.639709 0.000000
													CHANNELS 3 Zrotation Yrotation Xrotation
													End Site
													{
														OFFSET 0.000000 0.000000 0.000000
													}
												}
											}
										}
									}
									JOINT LeftHandMiddle1
									{
										OFFSET -0.104102 9.502952 0.006768
										CHANNELS 3 Zrotation Yrotation Xrotation
										JOINT LeftHandMiddle2
										{
											OFFSET -0.000000 4.568727 -0.000000
											CHANNELS 3 Zrotation Yrotation Xrotation
											JOINT LeftHandMiddle3
											{
												OFFSET -0.000000 3.654981 -0.000000
												CHANNELS 3 Zrotation Yrotation Xrotation
												JOINT LeftHandMiddle4
												{
													OFFSET 0.000000 2.741236 0.000000
													CHANNELS 3 Zrotation Yrotation Xrotation
													End Site
													{
														OFFSET 0.000000 0.000000 0.000000
													}
												}
											}
										}
									}
									JOINT LeftHandRing1
									{
										OFFSET -0.086752 8.921708 -2.267442
										CHANNELS 3 Zrotation Yrotation Xrotation
										JOINT LeftHandRing2
										{
											OFFSET 0.000000 4.061090 0.000000
											CHANNELS 3 Zrotation Yrotation Xrotation
											JOINT LeftHandRing3
											{
												OFFSET 0.000000 3.654981 -0.000000
												CHANNELS 3 Zrotation Yrotation Xrotation
												JOINT LeftHandRing4
												{
													OFFSET -0.000000 2.741236 -0.000000
													CHANNELS 3 Zrotation Yrotation Xrotation
													End Site
													{
														OFFSET 0.000000 0.000000 0.000000
													}
												}
											}
										}
									}
									JOINT LeftHandPinky1
									{
										OFFSET 0.173504 7.976997 -4.467199
										CHANNELS 3 Zrotation Yrotation Xrotation
										JOINT LeftHandPinky2
										{
											OFFSET -0.000000 3.350399 -0.000000
											CHANNELS 3 Zrotation Yrotation Xrotation
											JOINT LeftHandPinky3
											{
												OFFSET 0.000000 2.842763 -0.000000
												CHANNELS 3 Zrotation Yrotation Xrotation
												JOINT LeftHandPinky4
												{
													OFFSET -0.000000 2.639709 -0.000000
													CHANNELS 3 Zrotation Yrotation Xrotation
													End Site
													{
														OFFSET 0.000000 0.000000 0.000000
													}
												}
											}
										}
									}
									JOINT LeftForeArmEnd
									{
										OFFSET 0.000000 0.000000 0.000000
										CHANNELS 3 Zrotation Yrotation Xrotation
										End Site
										{
											OFFSET 0.000000 0.000000 0.000000
										}
									}
								}
								JOINT LeftArmEnd
								{
									OFFSET 0.000000 0.000000 0.000000
									CHANNELS 3 Zrotation Yrotation Xrotation
									End Site
									{
										OFFSET 0.000000 0.000000 0.000000
									}
								}
							}
						}
					}
				}
			}
		}
	}
	JOINT RightUpLeg
	{
		OFFSET -11.289943 -0.000000 0.000000
		CHANNELS 3 Zrotation Yrotation Xrotation
		JOINT RightLeg
		{
			OFFSET 0.000000 -38.200325 -0.000000
			CHANNELS 3 Zrotation Yrotation Xrotation
			JOINT RightFoot
			{
				OFFSET -0.000000 -39.900856 0.000000
				CHANNELS 3 Zrotation Yrotation Xrotation
				JOINT RightToeBase
				{
					OFFSET 0.000000 0.000000 15.261641
					CHANNELS 3 Zrotation Yrotation Xrotation
					JOINT RightToeBaseEnd
					{
						OFFSET 0.000000 0.000000 7.370709
						CHANNELS 3 Zrotation Yrotation Xrotation
						End Site
						{
							OFFSET 0.000000 0.000000 0.000000
						}
					}
				}
				JOINT RightLegEnd
				{
					OFFSET 0.000000 0.000000 0.000000
					CHANNELS 3 Zrotation Yrotation Xrotation
					End Site
					{
						OFFSET 0.000000 0.000000 0.000000
					}
				}
			}
			JOINT RightUpLegEnd
			{
				OFFSET 0.000000 0.000000 0.000000
				CHANNELS 3 Zrotation Yrotation Xrotation
				End Site
				{
					OFFSET 0.000000 0.000000 0.000000
				}
			}
		}
	}
	JOINT LeftUpLeg
	{
		OFFSET 11.315661 0.000000 0.000000
		CHANNELS 3 Zrotation Yrotation Xrotation
		JOINT LeftLeg
		{
			OFFSET 0.000000 -38.200325 -0.000000
			CHANNELS 3 Zrotation Yrotation Xrotation
			JOINT LeftFoot
			{
				OFFSET 0.000000 -39.900856 -0.000000
				CHANNELS 3 Zrotation Yrotation Xrotation
				JOINT LeftToeBase
				{
					OFFSET 0.000000 -0.000000 15.261641
					CHANNELS 3 Zrotation Yrotation Xrotation
					JOINT LeftToeBaseEnd
					{
						OFFSET -0.000000 0.000000 7.539996
						CHANNELS 3 Zrotation Yrotation Xrotation
						End Site
						{
							OFFSET 0.000000 0.000000 0.000000
						}
					}
				}
				JOINT LeftLegEnd
				{
					OFFSET 0.000000 0.000000 0.000000
					CHANNELS 3 Zrotation Yrotation Xrotation
					End Site
					{
						OFFSET 0.000000 0.000000 0.000000
					}
				}
			}
			JOINT LeftUpLegEnd
			{
				OFFSET 0.000000 0.000000 0.000000
				CHANNELS 3 Zrotation Yrotation Xrotation
				End Site
				{
					OFFSET 0.000000 0.000000 0.000000
				}
			}
		}
	}
}
MOTION
Frames: 5
Frame Time: 0.016667
-0.066283 88.859909 3.106752 -0.554998 -0.063200 -6.496325 0.035903 -0.002268 5.888138 1.007702 -0.066753 0.859935 -0.482675 2.416700 3.828048 -0.160674 0.780135 1.924824 -2.324279 -0.847468 5.016633 -0.365139 -2.116586 -3.221972 0.720381 0.853138 -18.220909 0.000000 0.000000 0.000000 92.020271 -0.208433 5.546823 69.638977 -19.089216 -1.147147 0.059477 8.331356 28.544134 2.918324 25.791067 -8.931848 11.217805 -1.887472 39.615406 0.000000 0.000000 -27.315002 0.000000 0.000000 -18.968748 0.000000 0.000000 0.000000 13.213602 16.646936 -12.039722 11.238620 -0.665555 -3.398387 11.238004 0.315584 -3.203499 0.000000 0.000000 0.000000 14.610597 6.862490 -11.429158 11.135071 -0.860474 -1.356066 11.133999 0.111766 -1.162957 0.000000 0.000000 0.000000 19.862411 -8.846701 -10.677217 12.650033 1.760184 1.978157 12.644374 -0.177743 1.540332 0.000000 0.000000 0.000000 23.790291 -25.600758 -10.773308 12.395708 3.368127 5.825091 12.374576 -0.538114 4.967071 0.000000 0.000000 0.000000 0.000000 0.000000 0.000000 0.000000 0.000000 0.000000 -90.685371 0.125338 9.277699 -68.205345 33.746468 -2.114506 -0.906679 -12.804414 36.500160 -5.004631 -13.813062 -13.796777 -10.637670 1.840801 39.870987 0.000000 0.000000 -25.919998 0.000000 0.000000 -18.000004 0.000000 0.000000 0.000000 -15.727524 16.759449 -9.934354 -8.634541 -0.781970 2.617436 -8.634687 0.185794 2.467350 0.000000 0.000000 0.000000 -12.632174 6.870213 -11.103483 -7.858750 -0.942948 0.960031 -7.861093 -0.138773 0.818618 0.000000 0.000000 0.000000 -9.446996 -8.823497 -11.456291 -7.804728 1.917102 -1.226388 -7.800338 -0.064224 -0.954850 0.000000 0.000000 0.000000 -4.422287 -25.333719 -13.915033 -6.810095 3.806906 -3.213968 -6.795249 -0.160380 -2.740026 0.000000 0.000000 0.000000 0.000000 0.000000 0.000000 0.000000 0.000000 0.000000 1.904249 6.541767 7.475135 -0.037531 -0.408927 7.546108 -4.730400 1.738853 18.019159 -0.347465 0.340706 -20.620296 0.000000 0.000000 0.000000 0.000000 0.000000 0.000000 0.000000 0.000000 0.000000 1.163178 10.511868 11.895180 0.051614 0.626121 3.761402 1.290193 7.867616 18.489267 0.739732 -0.851381 -19.069050 0.000000 0.000000 0.000000 0.000000 0.000000 0.000000 0.000000 0.000000 0.000000 
-0.133745 88.785156 2.988722 -0.159422 0.088460 -7.876211 -1.102704 0.226489 6.883908 1.379007 -0.197377 2.201695 -0.816280 1.916072 3.389911 1.155228 0.256421 2.764682 -1.835550 -1.457808 4.025090 -0.358395 -2.151161 -3.428333 0.481596 0.558822 -18.239809 0.000000 0.000000 0.000000 90.732147 -0.173740 6.268774 69.231995 -19.984289 0.168259 0.112110 9.460879 29.583939 3.649598 24.061098 -8.729136 11.085055 -1.878266 39.676830 -0.000012 0.000012 -27.094513 -0.000005 0.000034 -18.795010 -0.000002 -0.000007 -0.000006 13.530149 16.658587 -10.536216 10.732789 -0.564941 -3.114396 10.792382 0.398295 -2.905936 -0.000024 0.000013 -0.000025 14.477043 6.905519 -11.018360 10.719481 -0.818598 -1.250363 10.756008 0.140941 -1.062121 0.000020 -0.000005 0.000013 19.512903 -8.910197 -11.148220 12.158845 1.713738 1.786618 12.100201 -0.202190 1.380484 -0.000032 -0.000218 0.000016 24.120817 -25.213024 -12.725777 12.063784 3.170486 5.289456 11.858363 -0.653102 4.516254 0.000242 -0.000005 0.000009 0.000000 0.000000 0.000000 0.000000 0.000000 0.000000 -91.038681 0.362983 8.819651 -67.227455 33.654373 -2.114761 -1.167565 -13.908543 37.120289 -6.051221 -11.235006 -13.341348 -10.577794 1.819361 39.907925 -0.000004 0.000013 -25.752022 0.000004 -0.000027 -17.912867 -0.000355 -0.000001 0.000161 -15.504955 16.899784 -10.155533 -8.826649 -0.638692 2.889951 -9.038634 0.317500 2.725441 -0.000003 0.000734 -0.000003 -12.569498 6.994132 -10.854160 -8.430007 -0.860552 1.120017 -8.199017 0.106265 0.958886 -0.000028 -0.000046 -0.000030 -8.975458 -8.929697 -10.846801 -8.049619 1.797657 -1.570873 -7.918754 -0.134095 -1.195667 0.000185 0.000006 -0.000000 -3.807394 -25.365770 -13.371637 -6.722044 3.425404 -4.234977 -6.790833 -0.412243 -3.641016 -0.000035 -0.000017 -0.000029 0.000000 0.000000 0.000000 0.000000 0.000000 0.000000 1.897236 5.952270 7.526134 -0.062079 -0.371549 8.844627 -4.779876 1.112051 17.965908 -0.297216 0.344972 -21.341007 0.000000 0.000000 0.000000 0.000000 0.000000 0.000000 0.000000 0.000000 0.000000 1.349136 9.391340 11.887706 0.036241 0.665734 5.425175 1.057608 9.153188 17.736458 0.736681 -0.802357 -19.325397 0.000000 0.000000 0.000000 0.000000 0.000000 0.000000 0.000000 0.000000 0.000000 
-0.148522 88.778496 2.959026 -0.205982 0.124896 -7.953286 -1.101889 0.219306 6.950363 1.388624 -0.197386 2.193682 -0.871517 1.876185 3.423205 1.202366 0.218289 2.727002 -1.840115 -1.436970 4.137496 -0.337587 -2.122403 -3.284972 0.435013 0.535462 -18.240570 0.000000 0.000000 0.000000 90.784760 -0.154047 6.227423 69.034492 -20.183964 0.376669 0.069282 9.270494 29.479494 3.839349 24.044201 -8.892741 11.067394 -1.879176 39.683178 -0.000007 0.000031 -27.056332 -0.000006 0.000032 -18.773777 0.000012 -0.000001 -0.000018 13.468976 16.648220 -10.385212 10.650712 -0.582619 -3.067147 10.713019 0.381582 -2.863249 -0.000002 0.000026 -0.000023 14.403021 6.897977 -10.874537 10.625176 -0.825399 -1.230840 10.650857 0.135142 -1.046036 0.000019 -0.000034 0.000002 19.419729 -8.897642 -11.086375 12.062156 1.725057 1.762181 11.989665 -0.193666 1.360693 -0.000037 -0.000197 0.000001 24.034338 -25.194576 -12.743315 11.982952 3.204304 5.223427 11.773493 -0.627431 4.459207 0.000225 0.000007 0.000002 0.000000 0.000000 0.000000 0.000000 0.000000 0.000000 -91.027512 0.311068 8.896468 -67.244926 33.706135 -1.991457 -1.138748 -13.794122 37.027576 -5.756730 -11.154691 -13.613299 -10.599932 1.816643 39.900826 0.000009 0.000019 -25.800865 0.000004 -0.000012 -17.942453 -0.000454 0.000008 0.000181 -15.564442 16.912546 -10.089735 -8.869607 -0.646790 2.878667 -9.073812 0.310382 2.713281 0.000013 0.000683 0.000007 -12.611404 6.998513 -10.804710 -8.447752 -0.863848 1.111434 -8.219408 0.103669 0.953364 0.000012 -0.000035 -0.000063 -9.043569 -8.931472 -10.824502 -8.075446 1.803438 -1.562838 -7.945508 -0.130521 -1.190006 0.000299 0.000014 0.000004 -3.926819 -25.389067 -13.385383 -6.785524 3.440878 -4.209640 -6.850456 -0.400516 -3.625006 0.000024 0.000007 -0.000049 0.000000 0.000000 0.000000 0.000000 0.000000 0.000000 1.946166 5.883687 7.529248 -0.060157 -0.365969 8.946239 -4.796894 1.129660 17.926350 -0.280588 0.354942 -21.290529 0.000000 0.000000 0.000000 0.000000 0.000000 0.000000 0.000000 0.000000 0.000000 1.370921 9.384002 12.021838 0.034623 0.663309 5.281743 1.041847 8.959445 17.721050 0.747271 -0.816945 -19.303352 0.000000 0.000000 0.000000 0.000000 0.000000 0.000000 0.000000 0.000000 0.000000 
-0.165395 88.779640 2.934160 -0.228588 0.149457 -8.024236 -1.106902 0.222222 7.011294 1.387498 -0.190543 2.190007 -0.909913 1.867734 3.456177 1.245638 0.206805 2.684581 -1.869540 -1.406496 4.195887 -0.327417 -2.094627 -3.201312 0.402497 0.518865 -18.265041 0.000000 0.000000 0.000000 90.824432 -0.137956 6.208625 68.885773 -20.331810 0.507073 0.043187 9.192091 29.279247 3.993801 24.031555 -9.025074 11.063550 -1.880439 39.683220 -0.000004 0.000031 -27.047577 -0.000007 0.000033 -18.771549 0.000011 -0.000002 -0.000018 13.413092 16.646839 -10.263659 10.588501 -0.597498 -3.017974 10.652897 0.367263 -2.819672 -0.000001 0.000027 -0.000024 14.333913 6.894357 -10.752295 10.544660 -0.831297 -1.211421 10.567779 0.130285 -1.029669 0.000019 -0.000044 0.000005 19.337141 -8.891544 -11.014318 11.985755 1.734345 1.738735 11.907883 -0.186817 1.342061 -0.000036 -0.000142 0.000003 23.966574 -25.187880 -12.729434 11.925119 3.231051 5.166559 11.710987 -0.607750 4.409314 0.000226 0.000006 -0.000007 0.000000 0.000000 0.000000 0.000000 0.000000 0.000000 -90.999992 0.282319 8.940839 -67.260902 33.807030 -1.946241 -1.113458 -13.739643 37.013386 -5.570488 -10.938787 -13.639127 -10.628271 1.816911 39.887939 0.000008 0.000019 -25.871830 -0.000000 -0.000012 -17.991293 -0.000493 0.000007 0.000208 -15.645749 16.913729 -10.016346 -8.908108 -0.654728 2.859948 -9.111626 0.303678 2.693346 0.000011 0.000633 0.000008 -12.686591 6.998529 -10.746499 -8.468822 -0.867092 1.101234 -8.239276 0.101046 0.945474 0.000041 -0.000035 -0.000086 -9.138453 -8.930918 -10.797165 -8.109344 1.808700 -1.551559 -7.976263 -0.127355 -1.181371 0.000353 0.000014 0.000004 -4.060268 -25.401796 -13.381299 -6.846468 3.454655 -4.177817 -6.902786 -0.390534 -3.600108 0.000038 0.000006 -0.000050 0.000000 0.000000 0.000000 0.000000 0.000000 0.000000 1.944641 5.848026 7.540497 -0.058684 -0.360886 9.027078 -4.801311 1.170424 17.904333 -0.267668 0.358647 -21.262941 0.000000 0.000000 0.000000 0.000000 0.000000 0.000000 0.000000 0.000000 0.000000 1.364436 9.382215 12.124309 0.032890 0.661177 5.180176 1.048956 8.859929 17.721455 0.756159 -0.824682 -19.293016 0.000000 0.000000 0.000000 0.000000 0.000000 0.000000 0.000000 0.000000 0.000000 
-0.176467 88.784821 2.915448 -0.233758 0.169244 -8.096591 -1.107575 0.228919 7.054429 1.374852 -0.179072 2.195675 -0.931219 1.876379 3.477739 1.270770 0.210918 2.665275 -1.893439 -1.365328 4.236111 -0.321518 -2.057444 -3.148491 0.377786 0.512269 -18.318832 0.000000 0.000000 0.000000 90.840027 -0.116989 6.202651 68.811249 -20.437859 0.563743 0.025174 9.194199 29.106009 4.144484 24.132362 -9.089038 11.059062 -1.881636 39.683361 -0.000004 0.000031 -27.035946 -0.000008 0.000035 -18.765926 0.000010 -0.000002 -0.000018 13.346047 16.645895 -10.119155 10.521919 -0.610990 -2.969757 10.585988 0.354095 -2.777788 -0.000001 0.000027 -0.000024 14.249431 6.891328 -10.621059 10.460292 -0.836919 -1.192417 10.482735 0.125756 -1.013635 0.000019 -0.000048 0.000007 19.240440 -8.887693 -10.936572 11.902506 1.742776 1.715706 11.820975 -0.180637 1.323972 -0.000036 -0.000079 0.000004 23.893991 -25.185900 -12.716880 11.857578 3.255006 5.111460 11.640043 -0.590017 4.362009 0.000241 0.000006 -0.000012 0.000000 0.000000 0.000000 0.000000 0.000000 0.000000 -90.954842 0.269419 8.949476 -67.261093 33.935551 -1.867246 -1.088627 -13.717394 36.988689 -5.368780 -10.735073 -13.627274 -10.655306 1.818569 39.873917 0.000007 0.000019 -25.941265 -0.000004 -0.000013 -18.040676 -0.000478 0.000006 0.000201 -15.722067 16.906994 -9.942546 -8.940669 -0.662227 2.838791 -9.144855 0.296870 2.671289 0.000010 0.000592 0.000008 -12.766001 6.994815 -10.680995 -8.485000 -0.870163 1.090577 -8.253656 0.098412 0.936932 0.000033 -0.000036 -0.000099 -9.245787 -8.925996 -10.749004 -8.134288 1.813652 -1.538640 -7.996132 -0.124162 -1.171560 0.000379 0.000015 0.000004 -4.202412 -25.401659 -13.344196 -6.887059 3.467395 -4.142182 -6.937461 -0.380860 -3.571384 0.000039 0.000004 -0.000051 0.000000 0.000000 0.000000 0.000000 0.000000 0.000000 1.919408 5.814001 7.575166 -0.057504 -0.356294 9.089593 -4.801615 1.228919 17.872622 -0.260634 0.357826 -21.233364 0.000000 0.000000 0.000000 0.000000 0.000000 0.000000 0.000000 0.000000 0.000000 1.353772 9.403659 12.222980 0.031456 0.658730 5.108934 1.062356 8.809922 17.729559 0.763153 -0.828720 -19.286722 0.000000 0.000000 0.000000 0.000000 0.000000 0.000000 0.000000 0.000000 0.000000 
